<?xml version="1.0" encoding="UTF-8" standalone="no"?>
<!-- Uploaded to: SVG Repo, www.svgrepo.com, Generator: SVG Repo Mixer Tools -->

<svg
   width="800px"
   height="800px"
   viewBox="2 2 60 60"
   aria-hidden="true"
   role="img"
   class="iconify iconify--emojione"
   preserveAspectRatio="xMidYMid meet"
   version="1.1"
   id="svg9"
   xmlns="http://www.w3.org/2000/svg"
   xmlns:svg="http://www.w3.org/2000/svg">
  <defs
     id="defs9" />
  <path
     d="M61.3 9.3l-6.6-6.6c-.4-.4-1.2-.7-1.7-.7H9v4H5V2H3c-.5 0-1 .5-1 1v58c0 .5.5 1 1 1h58c.5 0 1-.5 1-1V11c0-.6-.3-1.3-.7-1.7"
     fill="#3e4347"
     id="path1" />
  <path
     d="M12 62V34c0-1.1.9-2 2-2h36c1.1 0 2 .9 2 2v28H12"
     fill="#ffffff"
     id="path2" />
  <path
     d="M18 2v20c0 1.1.9 2 2 2h30c1.1 0 2-.9 2-2V2H18"
     fill="#e8e8e8"
     id="path3" />
  <path
     fill="#3e4347"
     d="M36 6h10v16H36z"
     id="path4" />
  <path
     d="M59 56c0-.6-.5-1-1-1h-2c-.5 0-1 .4-1 1v2c0 .5.5 1 1 1h2c.5 0 1-.5 1-1v-2"
     fill="#ffffff"
     id="path5" />
  <g
     fill="#f15744"
     id="g9">
    <path
       d="M12 54h40v8H12z"
       id="path6" />
    <path
       d="M17 36h30v2H17z"
       id="path7" />
    <path
       d="M17 42h30v2H17z"
       id="path8" />
    <path
       d="M17 48h30v2H17z"
       id="path9" />
  </g>
</svg>
